<?xml version="1.0" encoding="UTF-8"?>
<svg width="97px" height="25px" viewBox="0 0 97 25" version="1.1" xmlns="http://www.w3.org/2000/svg" xmlns:xlink="http://www.w3.org/1999/xlink">
    <!-- Generator: Sketch 60 (88103) - https://sketch.com -->
    <g id="Page-1" stroke="none" stroke-width="1" fill="none" fill-rule="evenodd">
        <g id="Home-Page" transform="translate(-44.000000, -380.000000)" fill="#9CA3AF" fill-rule="nonzero">
            <g id="logo" transform="translate(44.000000, 380.000000)">
                <g id="Group" transform="translate(29.000000, 0.000000)">
                    <polygon id="Path" points="25.2145985 0.641447368 27.0676399 1.48026316 27.0676399 9.01315789 25.2145985 9.83552632 25.2145985 10.0493421 30.4262774 10.0493421 30.4262774 9.83552632 28.556691 9.01315789 28.556691 1.48026316 30.4262774 0.641447368 30.4262774 0.411184211 25.2145985 0.411184211"></polygon>
                    <path d="M37.3255474,0.131578947 C34.1985401,0.131578947 31.7333333,2.45065789 31.7333333,5.41118421 C31.7333333,8.20723684 33.96691,10.2960526 36.9450122,10.2960526 C40.1216545,10.2960526 42.5041363,8.02631579 42.5041363,5.03289474 C42.5041363,2.23684211 40.2705596,0.131578947 37.3255474,0.131578947 Z M41.1309002,6.03618421 C41.1309002,7.99342105 39.8734793,9.24342105 37.9211679,9.24342105 C35.356691,9.24342105 33.1065693,6.99013158 33.1065693,4.42434211 C33.1065693,2.45065789 34.3639903,1.18421053 36.3163017,1.18421053 C38.8311436,1.18421053 41.1309002,3.50328947 41.1309002,6.03618421 Z" id="Shape"></path>
                    <polygon id="Path" points="19.3411192 0.625 21.740146 1.52960526 21.740146 7.59868421 15.2545012 0.444078947 15.2214112 0.411184211 12.6734793 0.411184211 14.7416058 2.23684211 14.7416058 8.93092105 12.8389294 9.83552632 12.8389294 10.0493421 17.7858881 10.0493421 17.7858881 9.83552632 15.3868613 8.93092105 15.3868613 2.92763158 22.0214112 10.2302632 22.0545012 10.2796053 22.3688564 10.2796053 22.3688564 1.52960526 24.2880779 0.625 24.2880779 0.411184211 19.3411192 0.411184211"></polygon>
                    <path d="M7.19708029,0.641447368 L9.43065693,1.52960526 L9.43065693,6.25 C9.43065693,8.70065789 7.75961071,9.21052632 6.36982968,9.21052632 C5.26131387,9.21052632 3.40827251,8.79934211 3.40827251,6.05263158 L3.40827251,1.48026316 L5.45985401,0.657894737 L5.45985401,0.411184211 L0.0330900243,0.411184211 L0.0330900243,0.641447368 L1.93576642,1.46381579 L1.93576642,6.66118421 C1.93576642,8.93092105 3.44136253,10.3289474 5.85693431,10.3289474 C8.50413625,10.3289474 10.0759124,8.83223684 10.0759124,6.31578947 L10.0759124,1.48026316 L11.9454988,0.657894737 L11.9454988,0.411184211 L7.19708029,0.411184211 L7.19708029,0.641447368 Z" id="Path"></path>
                    <polygon id="Path" points="50.1975669 0.625 52.6131387 1.52960526 52.6131387 7.59868421 46.1274939 0.444078947 46.0944039 0.411184211 43.546472 0.411184211 45.6145985 2.23684211 45.6145985 8.93092105 43.6953771 9.83552632 43.6953771 10.0493421 48.6588808 10.0493421 48.6588808 9.83552632 46.243309 8.93092105 46.243309 2.92763158 52.8778589 10.2467105 52.9109489 10.2796053 53.2418491 10.2796053 53.2418491 1.52960526 55.1610706 0.625 55.1610706 0.411184211 50.1975669 0.411184211"></polygon>
                    <path d="M39.7742092,14.6381579 C36.6472019,14.6381579 34.1819951,16.9572368 34.1819951,19.9342105 C34.1819951,22.7302632 36.4155718,24.8190789 39.393674,24.8190789 C42.5703163,24.8190789 44.9528894,22.5493421 44.9528894,19.5559211 C44.9693431,16.7434211 42.7357664,14.6381579 39.7742092,14.6381579 Z M43.5961071,20.5427632 C43.5961071,22.5 42.3386861,23.75 40.3863747,23.75 C37.8218978,23.75 35.5717762,21.4967105 35.5717762,18.9309211 C35.5717762,16.9572368 36.8291971,15.6907895 38.7815085,15.6907895 C41.2963504,15.6907895 43.5961071,18.0098684 43.5961071,20.5427632 Z" id="Shape"></path>
                    <path d="M52.3649635,14.6381579 C49.2379562,14.6381579 46.7727494,16.9572368 46.7727494,19.9342105 C46.7727494,22.7302632 49.006326,24.8190789 51.9844282,24.8190789 C55.1610706,24.8190789 57.5435523,22.5493421 57.5435523,19.5559211 C57.5435523,16.7434211 55.3265207,14.6381579 52.3649635,14.6381579 Z M56.1868613,20.5427632 C56.1868613,22.5 54.9294404,23.75 52.977129,23.75 C50.4126521,23.75 48.1625304,21.4967105 48.1625304,18.9309211 C48.1625304,16.9572368 49.4199513,15.6907895 51.3722628,15.6907895 C53.8871046,15.6907895 56.1868613,18.0098684 56.1868613,20.5427632 Z" id="Shape"></path>
                    <polygon id="Path" points="27.7294404 15.1480263 29.6155718 15.9703947 29.6155718 19.4078947 24.0399027 19.4078947 24.0399027 15.9703947 25.9094891 15.1480263 25.9094891 14.9177632 20.6812652 14.9177632 20.6812652 15.1480263 22.5343066 15.9703947 22.5343066 23.5032895 20.6812652 24.3421053 20.6812652 24.5559211 25.9094891 24.5559211 25.9094891 24.3421053 24.0399027 23.5032895 24.0399027 20.0328947 29.6155718 20.0328947 29.6155718 23.5032895 27.7294404 24.3421053 27.7294404 24.5559211 32.9742092 24.5559211 32.9742092 24.3421053 31.0715328 23.5032895 31.0715328 15.9703947 32.9742092 15.1480263 32.9742092 14.9177632 27.7294404 14.9177632"></polygon>
                    <path d="M6.22092457,19.0953947 L4.4836983,18.3717105 C3.22627737,17.8453947 2.54793187,17.5493421 2.56447689,16.6282895 C2.5810219,15.7730263 3.47445255,15.3453947 4.33479319,15.3453947 C6.13819951,15.3453947 7.4783455,16.6118421 8.07396594,17.6973684 L8.10705596,17.7631579 L8.33868613,17.6973684 L8.27250608,14.9342105 L7.95815085,14.8848684 C7.23017032,14.7697368 6.32019465,14.6381579 5.07931873,14.6381579 C3.34209246,14.6381579 1.27396594,15.2960526 1.24087591,17.1710526 C1.2243309,18.6019737 2.49829684,19.3092105 3.88807786,19.8519737 L5.54257908,20.5263158 C6.96545012,21.1019737 7.49489051,21.6447368 7.4783455,22.4671053 C7.46180049,23.5197368 6.6676399,24.1118421 5.29440389,24.1118421 C3.63990268,24.1118421 1.9026764,22.5822368 1.17469586,21.1019737 L1.14160584,21.0361842 L0.860340633,21.0855263 L0.99270073,24.1611842 L1.05888078,24.1940789 C1.98540146,24.5888158 3.45790754,24.8355263 4.71532847,24.8355263 C7.2136253,24.8355263 8.93430657,23.6842105 8.96739659,21.9736842 C8.98394161,20.5098684 7.97469586,19.8026316 6.22092457,19.0953947 Z" id="Path"></path>
                    <path d="M19.6389294,22.4835526 C18.7620438,23.2401316 17.653528,23.6019737 16.2141119,23.6019737 C14.0798054,23.6019737 11.8627737,21.8585526 11.8627737,18.9638158 C11.8627737,16.9736842 13.0705596,15.6743421 14.940146,15.6743421 C16.5119221,15.6743421 18.0009732,16.4967105 18.9274939,17.8618421 L18.9605839,17.9111842 L19.2418491,17.8618421 L19.043309,14.9671053 L18.9605839,14.9506579 C17.9844282,14.7368421 16.9255474,14.6052632 16.0982968,14.6052632 C12.9216545,14.6052632 10.5226277,16.8421053 10.5226277,19.8190789 C10.5226277,22.8125 12.6238443,24.9013158 15.6184915,24.9013158 C17.3391727,24.9013158 18.6958637,24.1940789 19.8705596,22.6809211 L19.9201946,22.6151316 L19.7051095,22.4013158 L19.6389294,22.4835526 Z" id="Path"></path>
                    <polygon id="Path" points="67.6194647 20.9375 65.2038929 23.9309211 62.3085158 23.9309211 62.3085158 15.9868421 64.5917275 15.1480263 64.5917275 14.9177632 58.9498783 14.9177632 58.9498783 15.1480263 60.8194647 15.9703947 60.8194647 23.5032895 58.9498783 24.3421053 58.9498783 24.5559211 67.1727494 24.5559211 67.8676399 20.9375"></polygon>
                </g>
                <g id="Group" transform="translate(0.000000, 1.000000)">
                    <path d="M9.32288136,10.768 L9.48389831,10.896 L9.64491525,10.768 C11.0457627,9.664 12.8491525,10.928 12.8491525,10.928 L12.8491525,6.896 L12.7686441,6.832 C12.2855932,6.432 11.6737288,6.192 11.0457627,6.192 C10.4822034,6.192 9.95084746,6.368 9.48389831,6.704 C9.01694915,6.368 8.48559322,6.192 7.9220339,6.192 C7.2940678,6.192 6.69830508,6.416 6.21525424,6.832 L6.11864407,6.896 L6.11864407,10.928 C6.11864407,10.928 7.72881356,9.584 9.32288136,10.768 Z M9.70932203,7.136 C10.1118644,6.832 10.5627119,6.672 11.0457627,6.672 C11.5288136,6.672 11.9957627,6.832 12.3822034,7.12 L12.3822034,7.12 L12.3822034,10.096 C11.5610169,9.632 10.5305085,9.632 9.70932203,10.096 L9.70932203,7.136 Z M6.58559322,7.12 C7.37457627,6.528 8.46949153,6.528 9.25847458,7.136 L9.25847458,10.112 C8.8559322,9.872 8.38898305,9.744 7.9220339,9.744 C7.45508475,9.744 6.98813559,9.872 6.58559322,10.096 L6.58559322,7.12 Z" id="Shape"></path>
                    <path d="M0.0483050847,0.096 L0.0483050847,8.528 L0.0483050847,8.528 L0.0483050847,9.04 L0.0483050847,9.04 L0.0483050847,14.768 C0.0483050847,19.904 4.18644068,23.936 9.48389831,23.936 C14.7652542,23.936 18.9194915,19.904 18.9194915,14.768 L18.9194915,0.112 L0.0483050847,0.096 Z M18.3398305,8.528 L14.2177966,8.528 L14.2177966,9.024 L18.3398305,9.024 L18.3398305,14.752 C18.3398305,19.568 14.4432203,23.344 9.48389831,23.344 C4.50847458,23.344 0.627966102,19.568 0.627966102,14.752 L0.627966102,9.024 L4.23474576,9.024 L4.23474576,8.512 L0.627966102,8.512 L0.627966102,0.64 L18.3559322,0.64 L18.3398305,8.528 Z" id="Shape"></path>
                    <polygon id="Path" points="8.06694915 4.064 9.1940678 3.616 9.1940678 4.816 9.77372881 4.816 9.77372881 3.616 10.9008475 4.064 11.1101695 3.536 9.95084746 3.088 10.7720339 2.096 10.3372881 1.744 9.48389831 2.768 8.63050847 1.744 8.19576271 2.096 9.01694915 3.088 7.85762712 3.536"></polygon>
                    <polygon id="Path" points="2.67288136 5.808 3.10762712 6.176 3.96101695 5.152 4.79830508 6.176 5.23305085 5.808 4.41186441 4.816 5.58728814 4.368 5.3779661 3.84 4.23474576 4.288 4.23474576 3.088 3.67118644 3.088 3.67118644 4.288 2.5279661 3.84 2.31864407 4.368 3.4940678 4.816"></polygon>
                    <polygon id="Path" points="13.7347458 5.808 14.1694915 6.176 15.0067797 5.152 15.8601695 6.176 16.2949153 5.808 15.4737288 4.816 16.6491525 4.368 16.4398305 3.84 15.2966102 4.288 15.2966102 3.088 14.7330508 3.088 14.7330508 4.288 13.5898305 3.84 13.3805085 4.368 14.5559322 4.816"></polygon>
                    <path d="M10.4983051,14.464 L10.4983051,22.112 L11.0618644,22.032 L11.0618644,21.728 C11.0618644,21.296 11.4322034,20.928 11.8830508,20.928 C12.3338983,20.928 12.6559322,21.28 12.720339,21.696 C12.720339,21.696 13.0262712,21.552 13.2355932,21.44 C13.1550847,21.056 12.8974576,20.736 12.5432203,20.544 C14.8618644,19.52 16.3271186,17.232 16.3271186,14.448 C16.3271186,12.88 15.0228814,11.6 13.4127119,11.6 C11.8025424,11.616 10.4983051,12.896 10.4983051,14.464 Z M11.0135593,16.064 C11.4322034,16.656 12.0601695,17.088 12.8008475,17.248 C12.1567797,17.824 11.4805085,18.624 11.0135593,19.504 L11.0135593,16.064 Z M11.1101695,20.496 C11.5932203,19.136 12.7525424,17.888 13.509322,17.312 C14.3144068,17.28 15.0228814,16.944 15.5381356,16.416 C14.9101695,18.496 13.3,20.032 11.1101695,20.496 Z M15.8279661,14.464 C15.8279661,15.76 14.7491525,16.816 13.4127119,16.816 C12.0762712,16.816 10.9974576,15.76 10.9974576,14.464 C10.9974576,13.168 12.0762712,12.112 13.4127119,12.112 C14.7491525,12.112 15.8279661,13.168 15.8279661,14.464 Z" id="Shape"></path>
                    <path d="M12.4144068,14.192 C12.3338983,14.288 12.3338983,14.432 12.4305085,14.512 L13.4127119,15.344 L14.3949153,14.512 C14.4915254,14.432 14.5076271,14.288 14.4110169,14.192 C14.3305085,14.096 14.1855932,14.08 14.0889831,14.176 L13.4127119,14.752 L12.7364407,14.176 C12.6398305,14.08 12.4949153,14.096 12.4144068,14.192 Z" id="Path"></path>
                    <path d="M12.4949153,13.216 C12.0118644,13.216 11.4966102,13.552 11.4966102,14.176 C11.4966102,15.04 12.5110169,15.744 13.1872881,16.176 L13.4288136,16.336 C13.4288136,16.336 13.6864407,16.16 13.7508475,16.112 C14.4271186,15.664 15.3449153,14.992 15.3449153,14.176 C15.3449153,13.552 14.829661,13.216 14.3466102,13.216 C13.8957627,13.216 13.6059322,13.44 13.4288136,13.632 C13.1550847,13.36 12.8491525,13.216 12.4949153,13.216 Z M14.3466102,13.648 C14.620339,13.648 14.9101695,13.824 14.9101695,14.192 C14.9101695,14.784 14.1372881,15.36 13.509322,15.776 C13.4771186,15.792 13.4449153,15.808 13.4288136,15.84 C12.8330508,15.456 11.9474576,14.832 11.9474576,14.208 C11.9474576,13.808 12.2855932,13.664 12.5110169,13.664 C12.9940678,13.664 13.4288136,14.256 13.4288136,14.256 C13.4288136,14.256 13.8635593,13.648 14.3466102,13.648 Z" id="Shape"></path>
                    <path d="M5.55508475,11.616 C3.94491525,11.616 2.64067797,12.896 2.64067797,14.464 C2.64067797,17.232 4.1220339,19.52 6.42457627,20.56 C6.08644068,20.752 5.82881356,21.072 5.73220339,21.456 C5.94152542,21.568 6.24745763,21.712 6.24745763,21.712 C6.31186441,21.296 6.63389831,20.944 7.08474576,20.944 C7.53559322,20.944 7.9059322,21.296 7.9059322,21.744 L7.9059322,22.048 L8.46949153,22.128 L8.46949153,14.48 C8.46949153,12.896 7.16525424,11.616 5.55508475,11.616 Z M3.42966102,16.416 C3.94491525,16.944 4.65338983,17.28 5.45847458,17.312 C6.21525424,17.888 7.37457627,19.136 7.85762712,20.496 C5.66779661,20.032 4.05762712,18.496 3.42966102,16.416 Z M6.16694915,17.248 C6.90762712,17.088 7.53559322,16.656 7.95423729,16.064 L7.95423729,19.488 C7.48728814,18.624 6.81101695,17.824 6.16694915,17.248 Z M5.55508475,16.816 C4.21864407,16.816 3.13983051,15.76 3.13983051,14.464 C3.13983051,13.168 4.21864407,12.112 5.55508475,12.112 C6.89152542,12.112 7.97033898,13.168 7.97033898,14.464 C7.97033898,15.76 6.87542373,16.816 5.55508475,16.816 Z" id="Shape"></path>
                    <path d="M6.21525424,14.16 L5.53898305,14.736 L4.86271186,14.16 C4.76610169,14.08 4.62118644,14.08 4.54067797,14.176 C4.46016949,14.272 4.46016949,14.416 4.55677966,14.496 L5.53898305,15.328 L6.52118644,14.496 C6.61779661,14.416 6.63389831,14.272 6.53728814,14.176 C6.45677966,14.096 6.31186441,14.08 6.21525424,14.16 Z" id="Path"></path>
                    <path d="M6.47288136,13.216 C6.0220339,13.216 5.73220339,13.44 5.55508475,13.632 C5.29745763,13.344 4.99152542,13.216 4.63728814,13.216 C4.15423729,13.216 3.63898305,13.552 3.63898305,14.176 C3.63898305,15.04 4.65338983,15.744 5.32966102,16.176 L5.57118644,16.336 C5.57118644,16.336 5.82881356,16.16 5.89322034,16.112 C6.56949153,15.664 7.48728814,14.992 7.48728814,14.176 C7.48728814,13.552 6.9559322,13.216 6.47288136,13.216 Z M5.63559322,15.76 C5.60338983,15.776 5.57118644,15.792 5.55508475,15.824 C4.95932203,15.44 4.07372881,14.816 4.07372881,14.192 C4.07372881,13.792 4.41186441,13.648 4.63728814,13.648 C5.12033898,13.648 5.55508475,14.24 5.55508475,14.24 C5.55508475,14.24 6.0059322,13.648 6.47288136,13.648 C6.74661017,13.648 7.03644068,13.824 7.03644068,14.192 C7.03644068,14.784 6.26355932,15.344 5.63559322,15.76 Z" id="Shape"></path>
                    <path d="M11.9313559,8.704 C11.6576271,8.608 11.3516949,8.544 11.0457627,8.544 C10.7398305,8.544 10.45,8.592 10.1601695,8.704 L10.1601695,9.2 C10.7237288,8.944 11.3677966,8.96 11.9313559,9.2 L11.9313559,8.704 Z" id="Path"></path>
                    <path d="M11.9313559,8.08 L11.9313559,7.568 C11.6576271,7.472 11.3516949,7.408 11.0457627,7.408 C10.7398305,7.408 10.45,7.456 10.1601695,7.568 L10.1601695,8.064 C10.7237288,7.824 11.3677966,7.824 11.9313559,8.08 Z" id="Path"></path>
                    <path d="M8.80762712,8.704 C8.53389831,8.608 8.2279661,8.544 7.9220339,8.544 C7.61610169,8.544 7.32627119,8.592 7.03644068,8.704 L7.03644068,9.2 C7.6,8.944 8.2440678,8.96 8.80762712,9.2 L8.80762712,8.704 Z" id="Path"></path>
                    <path d="M8.80762712,8.08 L8.80762712,7.568 C8.53389831,7.472 8.2279661,7.408 7.9220339,7.408 C7.61610169,7.408 7.32627119,7.456 7.03644068,7.568 L7.03644068,8.064 C7.6,7.824 8.2440678,7.824 8.80762712,8.08 Z" id="Path"></path>
                </g>
            </g>
        </g>
    </g>
</svg>