<?xml version="1.0" encoding="utf-8"?>
<!-- Generator: Adobe Illustrator 25.2.0, SVG Export Plug-In . SVG Version: 6.00 Build 0)  -->
<svg version="1.1" id="Calque_1" xmlns="http://www.w3.org/2000/svg" xmlns:xlink="http://www.w3.org/1999/xlink" x="0px" y="0px"
	 viewBox="0 0 250 120" style="enable-background:new 0 0 250 120;" xml:space="preserve">
<style type="text/css">
	.st0{fill:#9CA3AF;}
</style>
<path class="st0" d="M246.4,38.1c-0.2,1.1-0.4,2.3-0.7,3.4c-2.1,7.7-9.3,12.8-17.3,12.1c-7.8-0.6-13.9-5.9-15.2-13.7
	c-1.7-9.7,5-18.1,13.9-19.4c9.1-1.3,17.2,4.4,19,13.4c0.1,0.7,0.2,1.3,0.3,2C246.4,36.6,246.4,37.4,246.4,38.1z M229.4,49
	c6.8,0,12.4-5.3,12.3-12c0-6.5-5.4-12-11.8-12.1c-6.8,0-12.3,5.3-12.3,12C217.7,43.5,223,49,229.4,49z"/>
<path class="st0" d="M86.7,118.3c0.6-1.5,1.2-3,1.7-4.6c1.1-3.7,1.7-7.5,1.8-11.3c0-3.7,0.1-7.4-0.2-11c-0.4-6.2-1.4-12.3-2.9-18.4
	c-1-3.9-2.1-7.7-3.2-11.7c-1,0.9-1.8,1.7-2.6,2.5C70.5,73.5,58.5,81,44.9,86c-3.7,1.4-7.6,2.4-11.6,2.9c-3.8,0.5-7.5,0-11-1.5
	c-0.1-0.1-0.2-0.1-0.3-0.2c0.7,0.1,1.4,0.3,2.1,0.4c2.9,0.4,5.6-0.2,8.3-1.3c6.6-2.7,12.8-6.1,18.9-9.9c10.4-6.5,20.1-14,29.1-22.3
	c0.4-0.4,0.5-0.7,0.3-1.2c-1.7-3.8-3.3-7.7-5-11.5c-0.1-0.2-0.2-0.4-0.3-0.6c-0.2,0.4-0.4,0.8-0.6,1.1c-1.7,3.6-3.4,7.2-5.1,10.9
	c-0.3,0.5-0.5,0.9-1.2,0.9c-0.7,0-1-0.3-1.2-0.9c-4.8-10.3-9.6-20.7-14.4-31c-0.5-1.1-0.2-1.6,1.1-1.6c1.8,0,3.6,0,5.4,0
	c0.8,0,1.2,0.3,1.5,1c2.4,5.4,4.8,10.8,7.3,16.1c0.1,0.2,0.2,0.4,0.3,0.6c0.1,0,0.2,0,0.2-0.1c0.8-1.7,1.6-3.5,2.4-5.2
	c0.1-0.2-0.1-0.6-0.2-0.8c-3.9-7.4-8.3-14.6-12.9-21.6c-1.2-1.8-2.4-3.7-4.2-5c-2.1-1.6-4.4-2.5-7-2.9c-0.1,0-0.1-0.1-0.3-0.1
	c2.4,0,4.5,0.4,6.6,1c5.4,1.6,9.7,4.8,13.1,9.1c2.8,3.6,5.6,7.3,8.4,11c0.1,0.2,0.3,0.4,0.4,0.6c0.4-1,0.9-1.9,1.3-2.8
	c0.3-0.6,0.7-0.9,1.4-0.9c1.9,0,3.7,0,5.6,0c1.2,0,1.5,0.5,1,1.6c-1.4,3-2.8,6.1-4.2,9.1c-0.1,0.3-0.2,0.7,0,1
	c2.7,4.8,5.1,9.9,7.2,15c0,0.1,0.1,0.2,0.2,0.4c0.4-0.4,0.8-0.8,1.2-1.2c4.8-5.2,9.2-10.8,12.8-16.9c0.3-0.6,0.8-1.1,1.3-1.6
	c0.2-0.2,0.5-0.3,0.7-0.2c0.1,0,0.3,0.4,0.2,0.6c-0.1,0.8-0.1,1.6-0.4,2.4c-2.4,8.6-6.5,16.2-12,23.1c-0.9,1.1-1.1,1.9-0.6,3.3
	c1.9,5.7,3.2,11.5,4,17.4c0.7,5,1.1,10,1,15c-0.1,6.9-0.9,13.8-3.5,20.3c-1.3,3.3-2.9,6.3-5.2,9C86.8,118.2,86.7,118.3,86.7,118.3z"
	/>
<g>
	<path class="st0" d="M41.6,2.4C41.6,2.4,41.5,2.4,41.6,2.4c-0.1,0-0.1,0-0.1,0C41.5,2.4,41.5,2.4,41.6,2.4
		C41.6,2.4,41.6,2.4,41.6,2.4z"/>
	<path class="st0" d="M41.4,2.4c-5.5,1-10.2,3.4-14.1,7.4c-2.7,2.8-4.7,6.1-6.6,9.4c-0.2,0.4-0.5,0.8-0.6,1.1
		c-1.4-0.1-2.7-0.3-4.1-0.3c-3.5,0-7,0-10.5,0c-1.3,0-1.5,0.2-1.5,1.6c0,4.3,0,8.7,0,13c0,5.5,0,11,0,16.6c0,1.8,0,1.9,1.9,1.9
		c1.2,0,2.4,0,3.6,0c0,0.2,0,0.2,0,0.3c-0.6,4.2-1,8.4-1.1,12.6c-0.1,4.9,1.2,9.5,4,13.5c1.2,1.8,2.7,3.4,4.4,4.7c-0.7-1-1.4-2-2-3
		c-1.9-3.6-2.1-7.4-1.6-11.3c0.7-5.6,2.4-10.9,3.9-16.3c0.1-0.2,0.4-0.4,0.5-0.5c2.3-0.2,4.4-0.8,6.4-1.8c6.4-3.4,9.8-10.3,8.7-17.4
		c-0.7-4-2.6-7.3-5.8-10c-0.2-0.1-0.3-0.5-0.2-0.7c1.4-4.1,2.8-8.2,4.3-12.2c1.1-3,3.1-5.3,6-6.8C38.5,3.5,40.1,2.9,41.4,2.4
		C41.4,2.4,41.4,2.4,41.4,2.4z M11.5,42.8c0-5,0-10.3,0-15.6c1.8,0,3.5,0,5.2,0C14.9,32.5,13.2,37.8,11.5,42.8z M19.6,45.3
		c1.4-4.5,2.8-8.9,4.3-13.3C26.5,36.3,24.7,43.3,19.6,45.3z"/>
	<path class="st0" d="M41.6,2.4C41.6,2.4,41.6,2.4,41.6,2.4L41.6,2.4z"/>
</g>
<path class="st0" d="M180.4,42.2c-1.4,0-2.8,0-4.1,0c-1.1,0-1.3-0.2-1.3-1.3c0-0.7,0-1.4,0-2.1c0-0.8,0.3-1.1,1.1-1.1
	c1.3,0,2.6,0,3.8,0c1.4,0,2.7,0,4.1,0c0.9,0,1.1,0.3,1.1,1.2c0,3.5,0,7.1,0.1,10.6c0,0.5-0.1,1-0.6,1.2c-5.1,2.7-10.5,3.8-16.1,2.2
	c-6.8-1.9-11.5-7.9-11.9-15c-0.5-8.8,5.9-16.6,14.7-17.6c4.9-0.6,9.3,0.9,13.1,4.1c0.6,0.5,0.6,1,0.1,1.6c-0.6,0.7-1.3,1.4-1.9,2
	c-0.5,0.5-0.9,0.3-1.3-0.1c-1.6-1.4-3.4-2.4-5.5-2.8c-5-1.1-10.2,1.4-12.6,6.2c-3.5,6.9,0.2,15.3,7.5,17.2c3.2,0.8,6.4,0.2,9.4-1.1
	c0.2-0.1,0.4-0.3,0.4-0.5C180.4,45.4,180.4,43.9,180.4,42.2z"/>
<path class="st0" d="M146.8,42.2c-1.5,0-2.8,0-4.2,0c-1,0-1.2-0.3-1.2-1.2c0-0.7,0-1.4,0-2.1c0-0.9,0.3-1.2,1.2-1.2
	c2.2,0,4.3,0,6.5,0c0.4,0,0.9,0,1.3,0c1,0,1.2,0.3,1.2,1.2c0,0.5,0,1,0,1.5c0,3,0,5.9,0.1,8.9c0,0.8-0.3,1.3-1,1.7
	c-4.8,2.4-9.9,3.5-15.2,2.1c-7.1-1.8-11.9-7.9-12.4-15.2c-0.6-10.1,7.9-18.3,18-17.6c3.7,0.3,7,1.7,9.8,4.1c0.6,0.5,0.6,1,0.1,1.6
	c-0.5,0.6-1.1,1.2-1.7,1.7c-0.8,0.8-0.9,0.8-1.8,0.1c-1.4-1.2-3-2.1-4.8-2.5c-5.5-1.5-11.4,1.5-13.6,7.1c-2.6,6.8,1.1,14.4,8,16.2
	c3.2,0.8,6.3,0.2,9.3-1.1c0.2-0.1,0.4-0.4,0.4-0.5C146.9,45.4,146.8,43.9,146.8,42.2z"/>
<path class="st0" d="M45.3,46.1c0.4,0,0.6,0,0.9,0c3.3,0,6.6,0,9.8,0c1.1,0,1.4,0.3,1.4,1.4c0,1.5,0,3,0,4.5c0,0.8-0.3,1.1-1.2,1.1
	c-5.8,0-11.5,0-17.3,0c-0.9,0-1.2-0.3-1.2-1.2c0-10.2,0-20.5,0-30.7c0-0.8,0.3-1.2,1.2-1.2c1.6,0,3.3,0,4.9,0c1.1,0,1.4,0.3,1.4,1.4
	c0,7.9,0,15.8,0,23.7C45.3,45.5,45.3,45.8,45.3,46.1z"/>
<path class="st0" d="M197.4,48.9c0.6,0,1.1,0,1.7,0c3.5,0,6.9,0,10.4,0c1.2,0,1.4,0.2,1.4,1.4c0,0.6,0,1.3,0,1.9c0,0.7-0.3,1-1,1
	c-5.5,0-10.9,0-16.4,0c-0.6,0-0.9-0.3-1-0.9c0-0.2,0-0.4,0-0.5c0-9.8,0-19.7,0-29.5c0-0.2,0-0.4,0-0.5c0.1-0.6,0.4-0.9,1-0.9
	c0.9,0,1.8,0,2.7,0c0.8,0,1.1,0.3,1.1,1.2c0,2.5,0,5,0,7.5c0,6.2,0,12.4,0,18.5C197.4,48.2,197.4,48.5,197.4,48.9z"/>
<path class="st0" d="M99.4,46.2c0.6-1.3,1.1-2.5,1.7-3.7c0.1-0.2,0.4-0.3,0.7-0.3c2.9,0,5.9,0,8.8,0c0.3,0,0.5,0,0.8,0
	c-0.1-0.3-0.2-0.5-0.3-0.7c-2.5-5.6-5-11.1-7.5-16.7c-0.3-0.7-0.3-1.2,0.1-1.8c0.5-0.7,1-1.4,1.5-2.2c0.5-0.7,1.2-0.7,1.6,0.1
	c0.6,1.4,1.3,2.8,1.9,4.2c4,8.8,8,17.6,11.9,26.3c0.1,0.2,0.2,0.4,0.3,0.6c0.2,0.6-0.1,1.1-0.7,1.1c-1.1,0-2.2,0-3.2,0
	c-0.6,0-0.8-0.5-1-0.9c-0.8-1.9-1.7-3.7-2.5-5.6c-0.2-0.4-0.4-0.6-0.9-0.6c-4.1,0-8.2,0-12.4,0C100,46.2,99.8,46.2,99.4,46.2z"/>
<path class="st0" d="M196.7,68.6c0-0.5,0-1,0-1.5c0-0.9,0-1.8,0-2.7c0-0.4,0-0.7,0.5-0.7c0.5,0,0.6,0.2,0.6,0.6c0,2.1,0,4.2,0,6.2
	c0,0.2-0.2,0.4-0.2,0.6c-0.2-0.1-0.4-0.2-0.5-0.3c-1.2-1.4-2.4-2.8-3.5-4.2c-0.2-0.2-0.4-0.4-0.7-0.8c0,1.7,0,3.1,0,4.6
	c0,0.4-0.1,0.7-0.6,0.6c-0.2,0-0.5-0.3-0.5-0.5c0-2.1,0-4.3,0-6.5c0-0.2,0.2-0.3,0.2-0.5c0.2,0.1,0.4,0.2,0.5,0.3
	c1.4,1.6,2.7,3.1,4.1,4.7C196.6,68.7,196.7,68.6,196.7,68.6z"/>
<path class="st0" d="M243,68.8c0-1.6,0-2.9,0-4.3c0-0.4-0.1-0.7,0.5-0.8c0.6,0,0.6,0.3,0.6,0.7c0,2,0,4,0,6c0,0.2-0.1,0.4-0.2,0.7
	c-0.2-0.1-0.5-0.2-0.6-0.4c-1.4-1.6-2.7-3.2-4.2-4.9c0,0.3-0.1,0.5-0.1,0.6c0,1.3,0,2.6,0,3.9c0,0.4,0,0.7-0.5,0.7
	c-0.5,0-0.6-0.2-0.6-0.6c0-2.1,0-4.2,0-6.3c0-0.2,0.2-0.4,0.2-0.6c0.2,0.1,0.4,0.2,0.5,0.3c1.2,1.4,2.4,2.8,3.6,4.2
	C242.5,68.4,242.7,68.5,243,68.8z"/>
<path class="st0" d="M132.9,68.9c0-1.6,0-3,0-4.4c0-0.4,0-0.7,0.5-0.7c0.5,0,0.6,0.3,0.6,0.7c0,2,0,4.1,0,6.1c0,0.2-0.1,0.4-0.2,0.7
	c-0.2-0.1-0.4-0.2-0.6-0.4c-1.3-1.5-2.5-3-3.8-4.5c-0.1-0.1-0.2-0.3-0.5-0.5c0,1.6,0,3.1,0,4.6c0,0.4-0.1,0.7-0.6,0.6
	c-0.2,0-0.5-0.3-0.5-0.5c0-2.2,0-4.3,0-6.5c0-0.2,0.1-0.3,0.2-0.5c0.2,0.1,0.4,0.1,0.5,0.3c1.1,1.2,2.1,2.4,3.2,3.7
	C132.1,68,132.4,68.4,132.9,68.9z"/>
<path class="st0" d="M144.3,64.8c0,0.7,0,1.4,0,2.1c0.8,0,1.5,0,2.2,0c0.3,0,0.7-0.1,0.7,0.5c0,0.6-0.3,0.6-0.7,0.5
	c-0.7,0-1.5,0-2.2,0c0,0.7,0,1.4,0,2.2c0.9,0,1.8,0,2.7,0c0.4,0,0.8-0.1,0.7,0.5c0,0.6-0.4,0.5-0.8,0.5c-1.1,0-2.1,0-3.2,0
	c-0.5,0-0.7-0.1-0.7-0.7c0-2,0-4,0-6c0-0.5,0.1-0.7,0.6-0.7c1.1,0,2.3,0,3.4,0c0.4,0,0.6,0.1,0.6,0.5c0,0.5-0.3,0.5-0.6,0.5
	C146.2,64.8,145.3,64.8,144.3,64.8z"/>
<path class="st0" d="M171.5,64.8c0,0.7,0,1.4,0,2.1c0.6,0,1.1-0.1,1.7,0c0.4,0.1,1.3-0.5,1.2,0.5c0,0.9-0.8,0.4-1.3,0.5
	c-0.5,0.1-1,0-1.6,0c0,0.7,0,1.4,0,2.2c0.9,0,1.9,0,2.8,0c0.3,0,0.6,0,0.7,0.5c0,0.5-0.3,0.6-0.7,0.6c-1.1,0-2.2,0-3.4,0
	c-0.4,0-0.6-0.2-0.6-0.6c0-2.1,0-4.1,0-6.2c0-0.4,0.1-0.6,0.6-0.6c1.2,0,2.3,0,3.5,0c0.4,0,0.5,0.1,0.5,0.5c0,0.4-0.2,0.5-0.6,0.5
	C173.5,64.8,172.5,64.8,171.5,64.8z"/>
<path class="st0" d="M112.3,66.5c0,0.7,0,1.4,0,2.1c-0.1,1.5-1.2,2.6-2.7,2.7c-1.6,0.1-2.8-1-2.9-2.5c-0.1-1.5,0-3,0-4.5
	c0-0.4,0.2-0.5,0.6-0.5c0.4,0,0.6,0.1,0.6,0.6c0,1.3,0,2.6,0,3.8c0,1.2,0.6,2,1.7,2c1.1,0,1.8-0.7,1.8-2c0-1.3,0-2.5,0-3.8
	c0-0.4,0.1-0.6,0.5-0.6c0.4,0,0.6,0.1,0.6,0.6C112.3,65.1,112.3,65.8,112.3,66.5C112.3,66.5,112.3,66.5,112.3,66.5z"/>
<path class="st0" d="M162.1,66.5c0,0.7,0,1.4,0,2.1c0,1.5-1.2,2.6-2.6,2.7c-1.6,0.1-2.9-0.9-3-2.4c-0.1-1.5-0.1-3.1-0.1-4.6
	c0-0.5,0.3-0.5,0.6-0.5c0.4,0,0.5,0.2,0.5,0.6c0,1.4,0,2.7,0,4.1c0,1,0.7,1.7,1.6,1.8c1.1,0.1,1.9-0.7,1.9-1.8c0-1.2,0-2.5,0-3.7
	c0-0.4-0.1-0.9,0.6-0.9c0.7,0,0.5,0.5,0.5,0.9C162.1,65.3,162.1,65.9,162.1,66.5z"/>
<path class="st0" d="M210,64.8c0,0.7,0,1.4,0,2.1c0.7,0,1.3,0,2,0c0.4,0,0.9-0.3,1,0.5c0,0.8-0.6,0.5-0.9,0.5c-0.7,0-1.3,0-2,0
	c0,0.7,0,1.4,0,2.2c0.9,0,1.8,0,2.7,0c0.4,0,0.7-0.1,0.7,0.5c0,0.6-0.4,0.5-0.8,0.5c-1.1,0-2.1,0-3.2,0c-0.5,0-0.7-0.1-0.7-0.7
	c0-2,0-4.1,0-6.1c0-0.4,0.1-0.6,0.6-0.6c1.1,0,2.3,0,3.4,0c0.4,0,0.6,0.1,0.6,0.5c0,0.4-0.2,0.5-0.6,0.5C212,64.8,211,64.8,210,64.8
	z"/>
<path class="st0" d="M139.2,71.2c-1.7,0-3.1-1-3.6-2.5c-0.5-1.6,0-3.3,1.3-4.2c1.3-1,3.1-1.1,4.4-0.2c0.5,0.4,0.6,0.8,0.1,1
	c-0.2,0.1-0.5,0-0.7-0.1c-1.1-0.6-2.2-0.6-3.1,0.2c-0.9,0.7-1.2,2-0.8,3.1c0.6,1.6,2.4,2.2,3.9,1.3c0.2-0.1,0.6-0.2,0.8-0.1
	c0.4,0.2,0.5,0.6,0,0.8c-0.7,0.4-1.4,0.6-2.2,0.9C139.2,71.3,139.2,71.3,139.2,71.2z"/>
<path class="st0" d="M204.5,69.1c0.7-1.6,1.4-3.1,2-4.6c0.4-0.8,0.5-0.9,1.5-0.6c-0.1,0.2-0.1,0.4-0.2,0.6c-0.9,2.1-1.9,4.2-2.9,6.2
	c-0.1,0.2-0.3,0.4-0.5,0.5c-0.1-0.2-0.3-0.3-0.4-0.5c-1-2.1-1.9-4.2-2.9-6.3c-0.1-0.2-0.1-0.3-0.2-0.5c0.9-0.3,1.1-0.2,1.4,0.5
	C203.1,65.9,203.7,67.4,204.5,69.1z"/>
<path class="st0" d="M152.5,70.1c0.9,0,1.7,0,2.5,0c0.3,0,0.6,0.1,0.6,0.5c0,0.4-0.2,0.6-0.6,0.6c-1,0-2,0-3,0
	c-0.4,0-0.6-0.2-0.6-0.6c0-2.1,0-4.2,0-6.2c0-0.4,0.2-0.6,0.6-0.6c0.5,0,0.6,0.2,0.6,0.6C152.5,66.3,152.5,68.1,152.5,70.1z"/>
<path class="st0" d="M167.5,67.3c0.2-0.1,0.3-0.1,0.4-0.1c0.7-0.6,1-1.3,0.6-2.1c-0.3-0.8-1-1.2-1.9-1.2c-0.7,0-1.5,0-2.2,0
	c-0.4,0-0.5,0.1-0.5,0.5c0,2.1,0,4.2,0,6.3c0,0.2,0.3,0.5,0.5,0.5c0.9,0,1.9,0,2.8-0.1c0.9-0.1,1.6-0.8,1.7-1.7
	C169,68.4,168.5,67.8,167.5,67.3z M165,64.8c0.8,0.1,1.6-0.3,2.2,0.4c0.2,0.3,0.2,0.9,0,1.2c-0.5,0.9-1.4,0.4-2.2,0.6
	C165,66.2,165,65.5,165,64.8z M166.5,70.1c-0.4,0-0.7,0-1.1,0c-0.1,0-0.2,0-0.4,0c0-0.7,0-1.4,0-2.2c0.5,0,1.1,0,1.6,0
	c0.7,0.1,1.1,0.6,1.1,1.1C167.6,69.7,167.2,70.1,166.5,70.1z"/>
<path class="st0" d="M118.3,68c1-0.7,1.4-1.6,1.1-2.6c-0.3-1-1.2-1.6-2.4-1.6c-0.8,0-1.5,0-2.3,0c-0.5,0-0.7,0.1-0.6,0.6
	c0,2,0,4.1,0,6.1c0,0.4,0.1,0.7,0.6,0.7c0.5,0,0.6-0.3,0.5-0.7c0-0.7,0-1.4,0-2.2c1.5-0.2,1.5-0.2,2.1,1c0.2,0.4,0.4,0.8,0.6,1.2
	c0.3,0.7,0.7,0.8,1.5,0.4c-0.5-0.9-1-1.8-1.5-2.8C118.1,68.1,118.2,68,118.3,68z M117.1,67.3c-0.1,0-0.3,0-0.4,0c-0.5,0-0.9,0-1.4,0
	c0-0.8,0-1.6,0-2.5c0.6,0,1.2,0,1.8,0c0.7,0,1.2,0.5,1.2,1.2C118.4,66.7,117.9,67.2,117.1,67.3z"/>
<path class="st0" d="M186.6,63.6c-2.1,0-3.8,1.6-3.8,3.8c0,2.2,1.6,3.8,3.7,3.8c2.1,0,3.8-1.6,3.8-3.8
	C190.4,65.4,188.7,63.7,186.6,63.6z M186.5,70.1c-1.5,0-2.7-1.2-2.7-2.6c0-1.5,1.2-2.7,2.7-2.7c1.5,0,2.7,1.2,2.7,2.7
	C189.3,68.9,188.1,70.1,186.5,70.1z"/>
<path class="st0" d="M232.8,63.6c-2.1,0-3.8,1.7-3.8,3.8c0,2.1,1.7,3.8,3.8,3.8c2.1,0,3.8-1.6,3.8-3.8
	C236.6,65.3,234.9,63.7,232.8,63.6z M232.8,70.1c-1.5,0-2.7-1.2-2.7-2.7c0-1.4,1.2-2.7,2.7-2.7c1.5,0,2.7,1.2,2.7,2.7
	C235.5,68.9,234.3,70.1,232.8,70.1z"/>
<path class="st0" d="M227.6,65.5c-0.9-1.5-2.3-1.9-3.8-1.8c-0.6,0-1,0-1.4,0c-0.4,0-0.6,0.1-0.6,0.6c0,2.1,0,4.2,0,6.2
	c0,0.4,0.2,0.6,0.6,0.6c0.8,0,1.7,0,2.5-0.1C227.6,70.8,229,67.8,227.6,65.5z M226.6,68.8c-0.8,1.4-2.2,1.4-3.6,1.3
	c0-1.8,0-3.5,0-5.3c1.3-0.1,2.6-0.2,3.5,1.1C227.1,66.8,227.1,67.8,226.6,68.8z"/>
<path class="st0" d="M180.6,68c1-0.7,1.4-1.5,1.1-2.6c-0.3-1-1.1-1.6-2.3-1.6c-0.8,0-1.6,0-2.4,0c-0.4,0-0.6,0.1-0.6,0.6
	c0,2.1,0,4.2,0,6.2c0,0.4,0.1,0.6,0.5,0.6c0.4,0,0.6-0.2,0.6-0.6c0-0.7,0-1.5,0-2.2c1.5-0.2,1.5-0.2,2.1,1c0.2,0.4,0.4,0.8,0.6,1.2
	c0.4,0.7,0.7,0.8,1.5,0.4c-0.5-0.9-1-1.8-1.5-2.8C180.4,68.1,180.5,68,180.6,68z M179.5,67.3c-0.6,0-1.2,0-1.9,0c0-0.9,0-1.7,0-2.5
	c0.6,0,1.2,0,1.8,0c0.7,0,1.2,0.6,1.2,1.2C180.7,66.7,180.2,67.3,179.5,67.3z"/>
<path class="st0" d="M219.2,67.9c0.9-0.6,1.3-1.6,1.1-2.5c-0.3-1-1.1-1.6-2.3-1.7c-0.8,0-1.6,0-2.5,0c-0.4,0-0.6,0.1-0.6,0.6
	c0,2.1,0,4.2,0,6.2c0,0.4,0.2,0.6,0.6,0.6c0.4,0,0.6-0.2,0.5-0.6c0-0.7,0-1.5,0-2.2c1.5-0.2,1.5-0.2,2.1,1c0.2,0.4,0.4,0.8,0.6,1.2
	c0.4,0.7,0.6,0.8,1.5,0.4c-0.5-0.9-1-1.8-1.5-2.8C219,68.1,219.1,68,219.2,67.9z M218,67.3c-0.2,0-0.5,0-0.7,0c-0.4,0-0.8,0-1.2,0
	c0-0.9,0-1.7,0-2.5c0.7,0,1.4-0.1,2.1,0c0.6,0.1,1,0.7,1,1.2C219.2,66.7,218.7,67.2,218,67.3z"/>
<path class="st0" d="M123.8,64c-0.1-0.1-0.2-0.2-0.4-0.3c-0.1,0.2-0.3,0.3-0.4,0.5c-1,2.2-2,4.3-3,6.5c-0.1,0.1-0.1,0.3-0.1,0.5
	c0.5,0.1,1,0.3,1.2-0.3c0.3-1.1,1-1.3,2-1.2c0.3,0,0.6,0,0.9,0c0.8-0.1,1.2,0.2,1.5,0.9c0.3,0.8,0.5,0.8,1.4,0.5
	C125.9,68.6,124.9,66.3,123.8,64z M122.2,68.5c0.4-0.9,0.8-1.8,1.2-2.8c0.5,1,0.8,1.9,1.3,2.8C123.9,68.5,123.1,68.5,122.2,68.5z"/>
<path class="st0" d="M101.8,64c-0.7,0-1.5,0-2.2,0c-0.5,0-0.7,0.2-0.7,0.7c0,1,0,2,0,3c0,1,0,2.1,0,3.1c0,0.5,0.2,0.7,0.6,0.6
	c0.8,0,1.6,0,2.4-0.1c1.9-0.2,3.3-1.8,3.3-3.8C105.2,65.7,103.7,64.1,101.8,64z M103.7,69.1c-0.8,1.4-2.2,1.3-3.6,1.2
	c0-1.8,0-3.5,0-5.3c1.3-0.1,2.6-0.2,3.4,1C104.2,66.9,104.3,68.2,103.7,69.1z"/>
</svg>
