<?xml version="1.0" encoding="UTF-8"?>
<svg width="83px" height="11px" viewBox="0 0 83 11" version="1.1" xmlns="http://www.w3.org/2000/svg" xmlns:xlink="http://www.w3.org/1999/xlink">
    <!-- Generator: Sketch 60 (88103) - https://sketch.com -->
    <g id="Page-1" stroke="none" stroke-width="1" fill="none" fill-rule="evenodd">
        <g id="Home-Page" transform="translate(-179.000000, -443.000000)" fill="#9CA3AF" fill-rule="nonzero">
            <g id="demeter_white" transform="translate(179.000000, 443.000000)">
                <path d="M1.2994012,9.70336759 C1.74650517,9.60362664 2.17964072,9.47538827 2.61277627,9.29015507 C3.03193794,9.10492187 3.43712575,8.89119125 3.81437126,8.63471451 C4.19161677,8.37823777 4.52694611,8.07901491 4.80638541,7.75129463 C5.08583016,7.42357435 5.30937942,7.06735666 5.47702776,6.66839284 C5.64469243,6.28367773 5.72852477,5.8562165 5.72852477,5.41450656 C5.72852477,4.97279662 5.64469243,4.55958409 5.47702776,4.18911769 C5.30937942,3.80440815 5.08583016,3.44818489 4.79241698,3.12046461 C4.49900381,2.79274433 4.16367447,2.50777574 3.78642896,2.251299 C3.40918345,1.99482226 3.0039902,1.78109164 2.5708601,1.61010715 C2.15169842,1.43912266 1.71856287,1.29663001 1.2714589,1.21113777 C0.824349483,1.11139681 0.405189439,1.06865069 0,1.06865069 L0,0 C0.54491018,0 1.08982036,0.0569952207 1.64870441,0.170984883 C2.20758302,0.284975101 2.73852477,0.441710887 3.25548721,0.65544373 C3.77245509,0.869174346 4.26147523,1.13989979 4.72255308,1.45337136 C5.18363092,1.76684294 5.5748503,2.12306063 5.91017964,2.53627315 C6.24550898,2.93523697 6.51099619,3.39119562 6.70658683,3.88990039 C6.90217746,4.38860516 7,4.93005606 7,5.5 C7,6.06994711 6.90217746,6.61139801 6.70658683,7.11010278 C6.51099619,7.60880755 6.24550898,8.0647662 5.91017964,8.46373002 C5.5748503,8.87694254 5.18363092,9.23316024 4.72255308,9.54663181 C4.26147523,9.86010338 3.78642896,10.1308288 3.25548721,10.3445594 C2.73852477,10.5582901 2.19361459,10.7292746 1.64870441,10.8290155 C1.08982036,10.9430052 0.54491018,11 0,11 L0,9.87435209 C0.419161677,9.84585467 0.852297224,9.80310855 1.2994012,9.70336759 Z" id="Path"></path>
                <path d="M18,0 L18,1.12564767 L12,1.12564767 L12,0 L18,0 Z M18,4.94430052 L18,6.06994819 L12,6.06994819 L12,4.94430052 L18,4.94430052 Z M18,9.87435233 L18,11 L12,11 L12,9.87435233 L18,9.87435233 Z" id="Shape"></path>
                <path d="M31.6344803,2.24577715 L28.1999914,6.57996726 L28.1724231,6.57996726 L28.144801,6.57996726 L27.9792834,6.4083155 L23,0.0572172523 L23.0551367,0 L24.3655197,0 C24.4068991,0 24.4344674,0.0143037543 24.4620358,0.0429123805 C24.4896578,0.0715210067 24.5172262,0.0858253198 24.5447945,0.114433946 L27.9792834,4.62029313 C27.9930945,4.64890175 28.0206628,4.67751038 28.0620422,4.72042332 C28.1034216,4.76333626 28.1310437,4.79194488 28.144801,4.8062492 L28.1724231,4.8062492 L28.1999914,4.8062492 C28.1999914,4.8062492 28.2138024,4.79194488 28.2275597,4.77764057 C28.2413708,4.76333626 28.2551818,4.74903194 28.2551818,4.74903194 L31.7310501,0.0143037543 L33,0.0143037543 L33,11 L31.8275662,11 L31.8275662,2.0741254 L31.6344803,2.24577715 Z" id="Path"></path>
                <path d="M45,0 L45,1.12564767 L39,1.12564767 L39,0 L45,0 Z M45,4.94430052 L45,6.06994819 L39,6.06994819 L39,4.94430052 L45,4.94430052 Z M45,9.87435233 L45,11 L39,11 L39,9.87435233 L45,9.87435233 Z" id="Shape"></path>
                <polygon id="Path" points="50 1.15414508 50 0 59 0 59 1.15414508 55.2089632 1.15414508 55.2089632 11 54.0090199 11 54.0090199 1.15414508"></polygon>
                <path d="M70,0 L70,1.12564767 L64,1.12564767 L64,0 L70,0 Z M70,4.94430052 L70,6.06994819 L64,6.06994819 L64,4.94430052 L70,4.94430052 Z M70,9.87435233 L70,11 L64,11 L64,9.87435233 L70,9.87435233 Z" id="Shape"></path>
                <path d="M77.4628804,4.99606921 L77.4029851,4.88088599 C77.4628804,4.83769229 77.5221942,4.80889648 77.6117465,4.78010068 C77.7012987,4.75130487 77.7908509,4.72250907 77.8804032,4.69371889 C77.9699554,4.66492309 78.0595077,4.65051956 78.1490599,4.62172376 C78.2386121,4.60733148 78.2985075,4.57853005 78.3432836,4.56413215 C78.7311494,4.43455103 79.0445823,4.2473783 79.2987013,3.98821606 C79.5371196,3.72905383 79.671448,3.38350418 79.671448,2.96596502 C79.671448,2.62041537 79.5818957,2.30366714 79.4027912,2.0157091 C79.2236868,1.71334754 78.95503,1.51177691 78.6119403,1.38219579 C78.552045,1.35339998 78.4776119,1.33900208 78.3880597,1.31020628 C78.2985075,1.28141047 78.2089552,1.25261467 78.119403,1.22382449 C78.0298507,1.19502868 77.9402985,1.18062516 77.8658655,1.15183498 C77.7908509,1.12303355 77.7460748,1.12303355 77.7460748,1.12303355 L74,1.12303355 L74,0 L77.8059701,0 C77.8210894,0 77.8507463,0 77.8955224,0.0143979021 C77.9554177,0.0287958042 78.0147315,0.0431931438 78.0746269,0.0431931438 C78.1345222,0.0575910459 78.2089552,0.0719895104 78.2688506,0.0863874125 C78.3281644,0.100785315 78.3880597,0.115182654 78.4177166,0.115182654 C78.7910448,0.201570067 79.1341345,0.331151748 79.4626866,0.503926573 C79.7761194,0.67670421 80.0447761,0.863871313 80.2686567,1.10863565 C80.4925373,1.33900208 80.6716418,1.61256222 80.7908509,1.92931607 C80.9106416,2.24606991 80.9850746,2.59161956 80.9850746,2.98036292 C80.9850746,3.5418811 80.8356271,4.03140977 80.5524326,4.42015313 C80.2686567,4.80889648 79.8656716,5.16884966 79.3580151,5.4712056 L79.3580151,5.58638882 L83,11 L81.5223881,11 L77.4628804,4.99606921 Z" id="Path"></path>
            </g>
        </g>
    </g>
</svg>