<?xml version="1.0" encoding="UTF-8"?>
<svg width="77px" height="15px" viewBox="0 0 77 15" version="1.1" xmlns="http://www.w3.org/2000/svg" xmlns:xlink="http://www.w3.org/1999/xlink">
    <!-- Generator: Sketch 60 (88103) - https://sketch.com -->
    <g id="Page-1" stroke="none" stroke-width="1" fill="none" fill-rule="evenodd">
        <g id="Home-Page" transform="translate(-435.000000, -383.000000)" fill="#9CA3AF" fill-rule="nonzero">
            <g id="logo_enovap" transform="translate(435.000000, 383.000000)">
                <path d="M17.7584304,1 L17.7584304,1 C17.3435625,1 17,1.34826367 17,1.78359326 L17,13.3499656 C17,13.6982293 17.2722571,13.9862166 17.6158196,13.9996113 C17.9723467,14.0130061 18.2640507,13.6781372 18.2640507,13.3097814 L18.2640507,5.29971689 C18.2640507,5.17916408 18.2964623,5.08540078 18.3807323,5.00503224 C18.5168609,4.8643873 18.7242949,4.85099254 18.8993173,4.93805846 C18.9576581,4.97154535 18.9965519,5.01172962 19.0354458,5.0787034 L23.8193917,13.6714398 C23.929591,13.8723612 24.1370249,13.9996113 24.3639058,13.9996113 L24.3703881,13.9996113 C24.597269,13.9996113 24.7982207,13.8790585 24.9149023,13.6781372 C25.0251016,13.4772158 25.0315839,13.2294128 24.9149023,13.0284915 L18.4455555,1.41523746 C18.3094269,1.16073708 18.0436521,1 17.7584304,1" id="Path"></path>
                <path d="M24.9897959,1 C24.4387755,1 24,1.28258488 24,1.63745893 L24,6.36254107 C24,6.71741512 24.4387755,7 24.9897959,7 L25.0102041,7 C25.5510204,7 26,6.71741512 26,6.36254107 L26,1.63745893 C25.9897959,1.28915663 25.5510204,1 24.9897959,1" id="Path"></path>
                <path d="M53.3631975,1 C53.0790673,1 52.8345831,1.18349515 52.7552909,1.46213592 L50.3038416,9.53592233 C50.2774109,9.61067961 50.2443725,9.66504854 50.1849034,9.70582524 C50.0791805,9.78737864 49.9338115,9.78058252 49.821481,9.70582524 C49.7752272,9.67184466 49.7421888,9.63106796 49.7223658,9.57669903 C49.7157581,9.55631068 49.7091504,9.53592233 49.7025427,9.51553398 L47.2709165,1.46893204 C47.1850166,1.19029126 46.9405325,1.00679612 46.6431869,1.00679612 C46.4383488,1.00679612 46.2533337,1.10194175 46.1277878,1.27184466 C46.0022419,1.44174757 45.9692035,1.6592233 46.0286726,1.85631068 L50.006496,15 L53.9711041,1.85631068 C54.0305732,1.65242718 53.9975348,1.44174757 53.8785966,1.27184466 C53.7530506,1.10194175 53.5680356,1 53.3631975,1" id="Path"></path>
                <path d="M61.0066079,0 L57.0286734,13.137312 C56.9692026,13.3410966 57.002242,13.5516739 57.1277914,13.7214944 C57.2467329,13.8913149 57.438361,13.9932072 57.6564205,13.9932072 C57.9405587,13.9932072 58.1850497,13.8098011 58.2709519,13.5312955 L60.6960382,5.46821931 C60.7224697,5.40029112 60.7621169,5.33915575 60.8215877,5.29160602 C60.9140978,5.21688501 61.0726865,5.20329937 61.1850202,5.29160602 C61.2246674,5.32557011 61.2577067,5.35953421 61.2841382,5.40708394 L63.7488716,13.5380883 C63.8347739,13.8165939 64.0792649,14 64.3567952,14 C64.561639,14 64.7532671,13.9049005 64.8722086,13.7350801 C64.997758,13.5652596 65.0307974,13.3546822 64.9713266,13.1508976 L61.0066079,0 Z" id="Path"></path>
                <path d="M76.8117777,5.18618619 C76.6866437,5.06606607 76.5058946,5 76.3042899,5 C75.9566955,5 75.6647163,5.22822823 75.6369087,5.52252252 C75.6091012,5.78678679 75.5395823,6.03903904 75.4214002,6.27927928 C75.2684587,6.58558559 75.0599021,6.85585586 74.7957304,7.08408408 C74.5315587,7.31231231 74.2187237,7.4984985 73.8572256,7.62462462 C73.5026794,7.75675676 73.1203256,7.82282282 72.7171161,7.82282282 L71.6743331,7.82282282 C71.305883,7.82282282 71,8.08108108 71,8.41741742 C71,8.73573574 71.2989311,9 71.6743331,9 L72.7171161,9 C73.2941228,9 73.8502737,8.90990991 74.3647134,8.72372372 C74.8861049,8.53753754 75.3449295,8.26726727 75.741187,7.91291291 C76.1513484,7.55855856 76.4641833,7.15615616 76.6866437,6.71171171 C76.853489,6.36936937 76.9577673,6.00900901 76.9994786,5.63663664 C77.0064305,5.47447447 76.9438635,5.30630631 76.8117777,5.18618619" id="Path"></path>
                <path d="M71.3678874,2.4742268 C71.6009955,2.36701031 71.8586413,2.30670103 72.1224215,2.30670103 L72.4046049,2.30670103 C72.723595,2.30670103 72.9873752,2.02525773 72.999644,1.67010309 C73.0119129,1.30154639 72.7051917,1 72.3677984,1 L69.3496621,1 C69.1533606,1 69,1.1742268 69,1.38195876 L69,13.35 C69,13.7051546 69.2637802,14 69.5950391,14 L69.6073079,14 C69.9324323,14 70.202347,13.7118557 70.202347,13.35 L70.202347,4.41752577 C70.202347,4.12268041 70.2514224,3.84793814 70.3557076,3.59329897 C70.4599928,3.33195876 70.5949501,3.11082474 70.7667139,2.92319588 C70.9262089,2.73556701 71.1347793,2.5814433 71.3678874,2.4742268" id="Path"></path>
                <path d="M11.8753862,3.86264657 C11.6410917,3.52093802 11.3733265,3.20603015 11.0787848,2.91122278 C10.784243,2.61641541 10.4629248,2.34840871 10.1282183,2.11390285 C9.78681771,1.87939698 9.41194645,1.67839196 9.02368692,1.51758794 C7.376931,0.827470687 5.623069,0.827470687 3.98300721,1.51758794 C3.58805355,1.67839196 3.21318229,1.87939698 2.87178167,2.11390285 C2.53707518,2.34840871 2.20906282,2.60971524 1.90113285,2.91122278 C1.31204943,3.50083752 0.84346035,4.19765494 0.508753862,4.97487437 C0.174047374,5.7721943 0,6.62311558 0,7.50083752 C0,8.38525963 0.167353244,9.2361809 0.502059732,10.0268007 C0.669412976,10.4154104 0.883625129,10.7973199 1.13130793,11.1658291 C1.15139032,11.1926298 1.17147271,11.2194305 1.1915551,11.2462312 L1.22502575,11.2931323 C1.31874356,11.4204355 1.41246138,11.5477387 1.51287333,11.6750419 L1.61328527,11.7889447 C1.70030896,11.8961474 1.79402678,11.9966499 1.90113285,12.1105528 C2.05509784,12.2579564 2.22245108,12.4053601 2.40988671,12.5527638 C2.42327497,12.5661642 2.44335736,12.5795645 2.45674562,12.5929648 C2.51699279,12.639866 2.57723996,12.680067 2.63748713,12.720268 L2.75798146,12.8073702 C2.8115345,12.8475712 2.86508754,12.8877722 2.92533471,12.9279732 C2.95880536,12.9480737 2.99897013,12.9748744 3.03244078,12.9949749 L3.07929969,13.0217755 C3.39392379,13.2160804 3.68177137,13.3701843 3.96961895,13.4974874 C4.17044284,13.5845896 4.38465499,13.6582915 4.61225541,13.7252931 L4.6791967,13.7453936 C4.73274974,13.758794 4.79299691,13.7721943 4.85324408,13.7855946 L4.96035015,13.8123953 C5.06745623,13.839196 5.18125644,13.8659966 5.32183316,13.8927973 C5.52935118,13.9262982 5.72348095,13.9530988 5.91091658,13.9731993 C5.93099897,13.9731993 5.94438723,13.9731993 5.98455201,13.9731993 C6.15190525,13.9865997 6.32595263,14 6.49330587,14 L6.82801236,14 L6.82801236,13.9932998 C6.94181256,13.9865997 7.04891864,13.9798995 7.16271885,13.9731993 C7.91246138,13.8994975 8.64212152,13.6850921 9.33161689,13.3433836 C9.48558187,13.2696817 9.59938208,13.1356784 9.65293512,12.9681742 C9.70648816,12.8073702 9.68640577,12.6197655 9.60607621,12.4723618 L9.58599382,12.4321608 C9.43202884,12.1440536 9.05046344,12.0301508 8.7492276,12.1708543 C8.20030896,12.438861 7.61791967,12.6063652 7.02883625,12.6599665 C6.35272915,12.7269682 5.68331617,12.6666667 5.04067971,12.479062 C4.73944387,12.3919598 4.43820803,12.2713568 4.15036045,12.1239531 L4.11019567,12.1038526 C3.99639547,12.0435511 3.88259526,11.9765494 3.76879506,11.9095477 L3.66168898,11.8425461 C3.59474768,11.7956449 3.52780639,11.7487437 3.46086509,11.7018425 L3.35375901,11.6281407 C3.3069001,11.5946399 3.26673532,11.561139 3.21987642,11.5276382 C3.19979403,11.5142379 3.17971164,11.4941374 3.16632338,11.480737 L3.11277034,11.4338358 C3.01235839,11.3467337 2.91864058,11.2663317 2.82492276,11.1725293 C2.71112255,11.0586265 2.59732235,10.9380235 2.4969104,10.8040201 L2.44335736,10.7303183 C2.36302781,10.6298157 2.28269825,10.5293132 2.21575695,10.4221106 C2.11534501,10.2747069 2.02832132,10.1340034 1.95468589,9.99329983 L1.90782698,9.90619765 C1.84088568,9.7721943 1.77394439,9.64489112 1.72039135,9.51758794 C1.45262616,8.89447236 1.31874356,8.21775544 1.31874356,7.50083752 C1.31874356,6.7839196 1.45262616,6.10720268 1.72039135,5.4840871 C1.98815654,4.86097152 2.36302781,4.29815745 2.83831102,3.82914573 C3.3069001,3.360134 3.869207,2.97822446 4.49176107,2.71021776 C5.11431514,2.44221106 5.79042225,2.30820771 6.50669413,2.30820771 C7.14933059,2.30820771 7.76519053,2.42211055 8.33419156,2.64321608 C8.7492276,2.81072027 9.14418126,3.01842546 9.51235839,3.27973199 L9.53244078,3.29313233 C9.57260556,3.319933 9.60607621,3.34673367 9.63954686,3.38023451 L9.89392379,3.58123953 C9.90731205,3.59463987 9.92070031,3.60134003 9.92739444,3.61474037 L9.96755922,3.65494137 C10.8913491,4.47236181 11.2394439,5.24288107 10.9917611,5.95309883 C10.7976313,6.50921273 10.2353244,6.88442211 9.58599382,6.88442211 L6.82801236,6.88442211 C6.55355304,6.88442211 6.28578785,7.04522613 6.19876416,7.30653266 C6.05818744,7.74204355 6.37950566,8.1440536 6.79454171,8.1440536 L12.3439753,8.1440536 C12.7054583,8.1440536 13,7.84924623 13,7.48743719 C13,6.63651591 12.8259526,5.78559464 12.484552,4.96147404 C12.3105046,4.57956449 12.1096807,4.20435511 11.8753862,3.86264657" id="Path"></path>
                <path d="M42.1182338,4.27217321 C41.944222,3.97089846 41.5024997,3.86377856 41.2080181,4.05793339 C40.9202294,4.24539323 40.8265307,4.62700791 41.0005425,4.93497765 C41.2080181,5.29650735 41.3686444,5.69820701 41.4891142,6.11999165 C41.6832043,6.80957607 41.7300536,7.49916049 41.6363549,8.16865992 C41.5426563,8.84485435 41.3284879,9.48087881 41.0005425,10.0566483 C40.6725971,10.6391128 40.2375676,11.1479324 39.7021466,11.5697171 C39.1734184,11.9915017 38.5576842,12.3061664 37.8683297,12.4936263 C37.1789752,12.6810861 36.4963134,12.7346461 35.8203444,12.6409161 C35.1443754,12.5471862 34.508563,12.3329464 33.9329854,12.0048917 C33.3507151,11.676837 32.8420651,11.2416623 32.4204211,10.7060628 C31.998777,10.1771582 31.6842172,9.56121875 31.4968199,8.87163433 C31.3094225,8.18204991 31.2558804,7.49246549 31.3495791,6.82296606 C31.4432778,6.14677163 31.6574462,5.51074717 31.9853915,4.92828266 C32.3133369,4.35251314 32.7483664,3.83699858 33.2837874,3.41521393 C33.8125157,2.99342929 34.4282498,2.67876456 35.1176043,2.49130471 C35.8069589,2.30384487 36.4963134,2.25028492 37.1655896,2.34401484 C37.4333001,2.37748981 37.6943179,2.43774476 37.9553356,2.51808469 C38.2765882,2.61181461 38.6379974,2.42435477 38.7450816,2.10969004 C38.8053164,1.94231518 38.7919309,1.76155033 38.7116178,1.60087047 C38.6313046,1.4401906 38.4840638,1.3196807 38.310052,1.26612075 C37.9887994,1.17239083 37.6608541,1.10544088 37.3462942,1.06527092 C36.5030062,0.938066024 35.632947,0.998320974 34.7695807,1.23264578 C33.8995216,1.47366557 33.1298539,1.86867024 32.4806559,2.40426979 C31.8247652,2.90639436 31.2759587,3.54241883 30.8476219,4.30564818 C30.4326706,5.02870757 30.1716529,5.8254119 30.0511832,6.66228619 C29.944099,7.51924547 30.0043338,8.38289974 30.2385805,9.22646903 C30.4728272,10.0834283 30.8610074,10.8533527 31.3964284,11.5295471 C31.9184639,12.1722665 32.5542763,12.7212561 33.297173,13.1631257 C34.0467623,13.5648254 34.8365083,13.8326251 35.6664109,13.94644 C35.9408141,13.979915 36.2152174,14 36.4829279,14 C37.0585054,14 37.6474685,13.9196601 38.2297389,13.7589802 C39.0730269,13.5246554 39.8426946,13.1363457 40.5320491,12.6007462 C41.1879399,12.0718416 41.7367464,11.4358172 42.1450049,10.7127578 C42.5733417,9.95622341 42.8410522,9.15282409 42.9347508,8.34272977 C43.0619133,7.49916049 43.0016785,6.63550622 42.7674318,5.76515695 C42.59342,5.24294739 42.3859443,4.73412782 42.1182338,4.27217321" id="Path"></path>
            </g>
        </g>
    </g>
</svg>